/vscmnt/brussel_pixiu_data/_data_brussel/112/vsc11236/PredSimResults/SUBJ06mtu3D/worker9.mot
version=1
nRows=9
nColumns=50
inDegrees=yes
endheader
                time	         pelvis_tilt	         pelvis_list	     pelvis_rotation	           pelvis_tx	           pelvis_ty	           pelvis_tz	       hip_flexion_r	     hip_adduction_r	      hip_rotation_r	        knee_angle_r	       ankle_angle_r	         mtp_angle_r	       hip_flexion_l	     hip_adduction_l	      hip_rotation_l	        knee_angle_l	       ankle_angle_l	         mtp_angle_l	    lumbar_extension	      lumbar_bending	     lumbar_rotation	 ercspn_r/activation	 intobl_r/activation	 extobl_r/activation	    abd_r/activation	    add_r/activation	hamstrings_r/activation	bifemsh_r/activation	glut_max_r/activation	iliopsoas_r/activation	rect_fem_r/activation	  vasti_r/activation	gastroc_r/activation	 soleus_r/activation	tib_ant_r/activation	 ercspn_l/activation	 intobl_l/activation	 extobl_l/activation	    abd_l/activation	    add_l/activation	hamstrings_l/activation	bifemsh_l/activation	glut_max_l/activation	iliopsoas_l/activation	rect_fem_l/activation	  vasti_l/activation	gastroc_l/activation	 soleus_l/activation	tib_ant_l/activation	
          0.63564393	         -5.79370706	          2.02743414	         -7.58202938	          0.71192120	          0.92979182	          0.01433314	        -11.71859138	         -1.73462901	          3.48073675	         -8.08937403	         10.46071854	         28.94522874	         30.98584877	         -0.69216267	         -3.74093489	         -4.95592932	          4.61382527	          0.21458678	         -5.45347756	          0.17747919	         -2.09720472	          0.06438678	          0.00999999	          0.00999999	          0.05638199	          0.01000002	          0.01751668	          0.13265499	          0.04652435	          0.39772147	          0.02613963	          0.01000000	          0.38420498	          0.33688083	          0.01889039	          0.12915623	          0.18730016	          0.01293846	          0.01211880	          0.08987365	          0.15517763	          0.26231733	          0.01490283	          0.15521211	          0.00999999	          0.00999999	          0.02987997	          0.00999999	          0.41022073	
          0.64835681	         -5.87658510	          1.94847731	         -7.61979271	          0.72926036	          0.92770292	          0.01372650	        -12.10055011	         -1.75531071	          3.04522301	         -9.17539223	          9.69669373	         30.91773564	         30.99538611	         -0.57397661	         -3.53327398	         -6.49837479	          4.17820733	          0.20831385	         -5.12539679	         -0.07388238	         -1.75983173	          0.10123556	          0.00999999	          0.00999999	          0.04652435	          0.05096905	          0.01516111	          0.10946203	          0.03839019	          0.41463610	          0.02156947	          0.01558445	          0.35607494	          0.31603099	          0.01558766	          0.10657499	          0.19260862	          0.01067634	          0.00999999	          0.12561521	          0.13707810	          0.21645464	          0.06312749	          0.12807534	          0.01000000	          0.00999999	          0.02975664	          0.02156948	          0.41552400	
          0.66106969	         -5.94293140	          1.87347586	         -7.60207150	          0.74691559	          0.92588776	          0.01302754	        -12.35469019	         -1.77435975	          2.57279743	        -10.53649966	          8.76716084	         32.94756891	         30.85775453	         -0.46337003	         -3.31406668	         -8.03143145	          3.80017118	          0.19585939	         -4.78629804	         -0.34535878	         -1.41950878	          0.09599237	          0.00999999	          0.00999999	          0.03839019	          0.04205779	          0.01543205	          0.09032405	          0.03167817	          0.42007669	          0.01779836	          0.02613967	          0.32489348	          0.28638978	          0.01286236	          0.10602546	          0.16218021	          0.00999999	          0.06097625	          0.11076595	          0.12276063	          0.17861043	          0.10233442	          0.10568307	          0.00999999	          0.00999999	          0.02455409	          0.01779834	          0.48780847	
          0.67378256	         -5.99473303	          1.79285108	         -7.52765626	          0.76462520	          0.92455374	          0.01222503	        -12.39356967	         -1.77975446	          2.06807648	        -12.28439821	          7.62881943	         35.01303438	         30.63247939	         -0.34476579	         -3.14047888	         -9.39225710	          3.23088357	          0.17232519	         -4.46646432	         -0.62530023	         -1.08485130	          0.13100051	          0.00999999	          0.00999999	          0.03167817	          0.05719150	          0.01938462	          0.07453210	          0.02613967	          0.42029003	          0.01468658	          0.02156949	          0.27099295	          0.23631834	          0.01061355	          0.11756985	          0.13382516	          0.00999999	          0.11826473	          0.16026209	          0.10556599	          0.14738278	          0.14473914	          0.08720579	          0.00999999	          0.00999999	          0.02026113	          0.01468654	          0.52190501	
          0.68649544	         -6.02995359	          1.71188279	         -7.40367674	          0.78220206	          0.92382648	          0.01133342	        -12.12165863	         -1.77736645	          1.53165815	        -14.57033541	          6.29992296	         37.00235479	         30.38966878	         -0.21163109	         -2.99917877	        -10.77443964	          2.87313382	          0.13939776	         -4.18191977	         -0.91894975	         -0.75939144	          0.16380156	          0.00999999	          0.00999999	          0.02613967	          0.09099227	          0.01610121	          0.06150115	          0.02156949	          0.40640095	          0.01211883	          0.01779836	          0.22361344	          0.19500123	          0.00999999	          0.12591562	          0.11042761	          0.00999999	          0.16309669	          0.19476535	          0.09393550	          0.12161486	          0.18359908	          0.07195902	          0.00999999	          0.01879342	          0.01671875	          0.01211881	          0.53606815	
          0.69920832	         -6.04792377	          1.63363941	         -7.23465910	          0.79950131	          0.92378285	          0.01037719	        -11.47024755	         -1.77392802	          0.95203395	        -17.48870911	          4.78238294	         38.72847936	         30.13126548	         -0.06426771	         -2.87531742	        -12.17220736	          2.76965834	          0.11420064	         -3.94117770	         -1.22899069	         -0.44716334	          0.18775333	          0.00999999	          0.00999999	          0.02156949	          0.12922122	          0.02129623	          0.05074850	          0.01779836	          0.37087745	          0.01000001	          0.01468655	          0.18451761	          0.16090786	          0.00999999	          0.12068011	          0.09112081	          0.00999999	          0.18580227	          0.19945104	          0.08603940	          0.10035212	          0.19125915	          0.05937795	          0.00999999	          0.07324046	          0.01379570	          0.01000000	          0.54081956	
          0.71192120	         -6.05064280	          1.55650149	         -7.02432597	          0.81643002	          0.92447907	          0.00938396	        -10.42171459	         -1.77871183	          0.31860078	        -21.03700992	          3.11468404	         39.81400020	         29.77610765	          0.09877960	         -2.74199039	        -13.40124421	          2.80546416	          0.09393301	         -3.74784406	         -1.55214910	         -0.15140923	          0.18220383	          0.00999999	          0.00999999	          0.01779836	          0.14014875	          0.01757334	          0.04187580	          0.01468655	          0.32017144	          0.00999999	          0.01211880	          0.15225716	          0.13277526	          0.00999999	          0.11341698	          0.07518955	          0.00999999	          0.18619696	          0.16508955	          0.08117512	          0.08280689	          0.17639625	          0.04899650	          0.00999999	          0.12261672	          0.01138370	          0.01000000	          0.52915086	
          0.72463408	         -6.04097990	          1.47362685	         -6.77717971	          0.83294559	          0.92589332	          0.00838547	         -9.00395130	         -1.80208944	         -0.36200124	        -25.13967049	          1.34611931	         39.87986805	         29.27086138	          0.27057897	         -2.58102815	        -14.36272502	          2.99138020	          0.07878219	         -3.60348913	         -1.88049049	          0.12450640	          0.18744282	          0.00999999	          0.00999999	          0.01468655	          0.13559341	          0.01450091	          0.03687864	          0.01211880	          0.26419373	          0.00999999	          0.00999999	          0.12563702	          0.10956128	          0.00999999	          0.09949422	          0.06204366	          0.00999999	          0.17756469	          0.13622584	          0.07600438	          0.06832921	          0.15830095	          0.04043012	          0.00999999	          0.15697411	          0.00999999	          0.00999999	          0.51070353	
          0.73734696	         -6.02126901	          1.37957932	         -6.49421920	          0.84905819	          0.92794865	          0.00739342	         -7.28286452	         -1.85218887	         -1.06246096	        -29.60965289	         -0.67614261	         38.97744043	         28.58995926	          0.44375085	         -2.39004522	        -15.00792197	          3.31657887	          0.07326909	         -3.50465787	         -2.20438888	          0.37639724	          0.19586965	          0.00999999	          0.00999999	          0.01211880	          0.13776501	          0.01196564	          0.07575950	          0.00999999	          0.21800298	          0.00999999	          0.00999999	          0.10367106	          0.09040595	          0.01999074	          0.08209898	          0.05119615	          0.00999999	          0.16973035	          0.11240856	          0.07409590	          0.05638276	          0.14413326	          0.03336145	          0.00999999	          0.18090342	          0.00999999	          0.00999999	          0.48049118	
